<svg width="238" height="42" viewBox="0 0 238 42" fill="none" xmlns="http://www.w3.org/2000/svg">
<path d="M56.1354 14.1645C54.5868 14.1645 53.4031 14.7448 52.5868 15.9054C51.7681 17.066 51.3599 18.6528 51.3599 20.6706C51.3599 22.6884 51.7369 24.2799 52.4932 25.3948C53.2495 26.5096 54.4643 27.0683 56.1354 27.0683C56.9013 27.0683 57.6744 26.9792 58.4571 26.801C59.2398 26.6228 60.0849 26.3724 60.9925 26.0521V29.452C60.1569 29.7916 59.3286 30.042 58.5099 30.2009C57.6912 30.3622 56.774 30.4417 55.7608 30.4417C53.7849 30.4417 52.1667 30.0372 50.9038 29.2233C49.6409 28.4118 48.7069 27.2705 48.1019 25.7969C47.4969 24.3257 47.1943 22.6065 47.1943 20.6441C47.1943 18.6817 47.5401 17.013 48.2363 15.5322C48.9302 14.0513 49.941 12.8907 51.2663 12.0528C52.5916 11.2149 54.2146 10.7959 56.1378 10.7959C57.0813 10.7959 58.0273 10.9163 58.9805 11.1571C59.9312 11.3979 60.8436 11.7229 61.7151 12.1347L60.4066 15.4262C59.696 15.0867 58.9781 14.793 58.2578 14.5425C57.5375 14.2921 56.8293 14.1669 56.1354 14.1669V14.1645Z" fill="#EEEEEE"/>
<path d="M70.6851 18.9602L74.5593 11.2229H78.7985L72.6339 22.6986V30.0145H68.7339V22.8289L62.5693 11.2229H66.8342L70.6827 18.9602H70.6851Z" fill="#EEEEEE"/>
<path d="M80.5065 11.2229H86.421C88.9421 11.2229 90.8569 11.5733 92.163 12.2766C93.469 12.9775 94.1209 14.2159 94.1209 15.9871C94.1209 17.0574 93.8669 17.9619 93.3612 18.6983C92.8555 19.4348 92.1318 19.8823 91.19 20.0409V20.1735C91.8107 20.3133 92.3834 20.5382 92.9083 20.8437C93.4331 21.1515 93.8453 21.6038 94.1472 22.1981C94.4492 22.7948 94.6002 23.5857 94.6002 24.566C94.6002 26.2685 93.9747 27.6016 92.7213 28.5677C91.4704 29.5338 89.7689 30.0145 87.6192 30.0145H80.5065V11.2229ZM84.5302 18.6723H86.8739C88.0458 18.6723 88.8582 18.4923 89.3111 18.1324C89.7641 17.7725 89.9894 17.2326 89.9894 16.5128C89.9894 15.7929 89.7233 15.2744 89.1913 14.9594C88.6593 14.6445 87.8157 14.4859 86.6606 14.4859H84.5302V18.6699V18.6723ZM84.5302 21.8311V26.7279H87.1687C88.3765 26.7279 89.2201 26.4958 89.6994 26.0293C90.1787 25.5652 90.4183 24.9472 90.4183 24.1729C90.4183 23.472 90.1739 22.9061 89.685 22.4751C89.1961 22.0442 88.3142 21.8311 87.0345 21.8311H84.5302Z" fill="#EEEEEE"/>
<path d="M107.84 30.0145H97.1631V11.2229H107.84V14.4854H101.087V18.6169H107.373V21.8795H101.087V26.7212H107.84V30.0121V30.0145Z" fill="#EEEEEE"/>
<path d="M116.713 11.2229C119.265 11.2229 121.147 11.687 122.365 12.6176C123.579 13.5482 124.188 14.9594 124.188 16.8561C124.188 17.7157 124.025 18.4663 123.702 19.1056C123.379 19.7473 122.95 20.2896 122.416 20.7371C121.883 21.1846 121.31 21.5493 120.699 21.8287L126.205 30.0145H121.798L117.34 22.8019H115.217V30.0145H111.257V11.2229H116.71H116.713ZM116.425 14.4859H115.22V19.565H116.505C117.817 19.565 118.756 19.3448 119.324 18.9067C119.892 18.4687 120.176 17.8199 120.176 16.9579C120.176 16.096 119.869 15.4283 119.258 15.0494C118.647 14.6729 117.701 14.4835 116.425 14.4835V14.4859Z" fill="#EEEEEE"/>
<path d="M139.711 23.2365C140.089 24.8508 139.799 26.2721 138.843 27.5005C137.887 28.7289 136.319 29.5901 134.146 30.0843C132.196 30.5267 130.367 30.5596 128.661 30.1761L127.817 26.5827C128.785 26.7569 129.774 26.8934 130.79 26.9946C131.804 27.0957 132.779 27.0393 133.709 26.8275C134.639 26.6157 135.318 26.2698 135.638 25.8109C135.958 25.3544 136.051 24.8437 135.92 24.2837C135.812 23.8248 135.561 23.4695 135.167 23.22C134.773 22.9706 134.273 22.7659 133.673 22.6059C133.073 22.4482 132.389 22.2858 131.622 22.1188C131.142 22.0129 130.621 21.8764 130.054 21.7093C129.488 21.5422 128.926 21.3046 128.371 20.9916C127.817 20.6786 127.322 20.2597 126.889 19.7303C126.457 19.2032 126.141 18.5231 125.948 17.6901C125.565 16.0593 125.828 14.6615 126.736 13.4967C127.645 12.3319 129.067 11.5318 130.998 11.0917C131.964 10.8729 132.906 10.774 133.821 10.7999C134.737 10.8258 135.724 10.9317 136.788 11.12L136.224 14.4168C135.298 14.2685 134.476 14.1791 133.759 14.1438C133.042 14.1109 132.33 14.1744 131.622 14.3344C130.879 14.5038 130.351 14.8027 130.033 15.2333C129.715 15.664 129.622 16.1511 129.748 16.6947C129.899 17.3418 130.312 17.7842 130.986 18.0242C131.66 18.2642 132.64 18.5254 133.924 18.8055C134.976 19.0314 135.891 19.3067 136.668 19.6314C137.445 19.9562 138.09 20.4009 138.604 20.9633C139.118 21.5258 139.486 22.2835 139.711 23.2365Z" fill="#E33A65"/>
<path d="M148.74 30.0145H144.671V14.5395H139.444V11.2229H153.965V14.5395H148.738V30.0121L148.74 30.0145Z" fill="#EEEEEE"/>
<path d="M165.531 30.0145L164.179 25.5583H157.42L156.068 30.0145H151.83L158.381 11.2229H163.19L169.767 30.0145H165.529H165.531ZM163.244 22.2291L161.892 17.879C161.805 17.5819 161.693 17.207 161.555 16.7519C161.417 16.2969 161.277 15.8347 161.139 15.3632C161.001 14.8916 160.886 14.4814 160.8 14.1324C160.713 14.4814 160.596 14.9152 160.449 15.4292C160.301 15.9456 160.163 16.4336 160.032 16.8958C159.902 17.3602 159.803 17.6856 159.733 17.879L158.407 22.2291H163.244Z" fill="#EEEEEE"/>
<path d="M188.132 30.0122H183.081L174.899 15.8013H174.792C174.828 16.6961 174.865 17.5909 174.91 18.4858C174.953 19.3806 174.993 20.2754 175.029 21.1703V30.0122H171.476V11.2229H176.501L184.657 25.3012H184.736C184.7 24.4419 184.665 23.5826 184.631 22.7232C184.596 21.8639 184.57 20.9951 184.553 20.1192V11.2253H188.132V30.0145V30.0122Z" fill="#EEEEEE"/>
<path d="M207.349 20.434C207.349 23.6094 206.456 26.0009 204.674 27.6064C202.891 29.2118 200.406 30.0145 197.221 30.0145H191.976V11.2229H197.794C199.733 11.2229 201.417 11.5733 202.845 12.2766C204.272 12.9775 205.382 14.0146 206.169 15.3833C206.956 16.7519 207.351 18.4355 207.351 20.4364L207.349 20.434ZM203.272 20.5382C203.272 18.4687 202.821 16.9414 201.922 15.9587C201.022 14.976 199.714 14.4835 197.999 14.4835H195.897V26.7231H197.586C201.377 26.7231 203.272 24.6607 203.272 20.5382Z" fill="#EEEEEE"/>
<path d="M208.205 29.1604C208.205 28.307 208.632 27.8792 209.486 27.8792C210.34 27.8792 210.767 28.307 210.767 29.1604C210.767 30.0138 210.34 30.4416 209.486 30.4416C208.632 30.4416 208.205 30.0138 208.205 29.1604Z" fill="white"/>
<path d="M218.596 15.9207C219.787 15.9207 220.784 16.1975 221.589 16.7488C222.395 17.3001 222.998 18.0596 223.402 19.025C223.804 19.9904 224.007 21.0953 224.007 22.3399V23.3928H214.026C214.026 25.2336 214.456 26.6509 215.313 27.64C216.171 28.6314 217.405 29.1259 219.016 29.1259C219.891 29.1259 220.654 29.0549 221.301 28.9153C221.949 28.7757 222.658 28.5296 223.428 28.1795V29.5471C222.728 29.8618 222.036 30.0913 221.353 30.2309C220.67 30.3705 219.874 30.4414 218.962 30.4414C216.878 30.4414 215.276 29.8026 214.156 28.5225C213.036 27.2425 212.476 25.4987 212.476 23.2887C212.476 21.869 212.717 20.6008 213.199 19.4887C213.681 18.3767 214.375 17.5036 215.287 16.8718C216.197 16.2401 217.301 15.9254 218.598 15.9254L218.596 15.9207ZM218.57 17.1842C217.291 17.1842 216.254 17.6148 215.458 18.4737C214.661 19.3326 214.191 20.5511 214.052 22.1293H222.431C222.431 20.6576 222.119 19.4651 221.497 18.5518C220.876 17.6408 219.9 17.1842 218.57 17.1842Z" fill="white"/>
<path d="M237.673 15.9231V30.1763H236.45L236.242 27.7373H236.165C235.783 28.5061 235.199 29.1496 234.41 29.6654C233.622 30.1836 232.637 30.4414 231.458 30.4414C228.2 30.4414 226.569 28.7086 226.569 25.2429V15.9207H228.078V25.1368C228.078 26.4937 228.373 27.4987 228.962 28.1519C229.552 28.805 230.436 29.1304 231.615 29.1304C234.665 29.1304 236.19 27.318 236.19 23.6908V15.9207H237.673V15.9231Z" fill="white"/>
<path fill-rule="evenodd" clip-rule="evenodd" d="M25.1759 5.83496C29.7658 7.17429 33.4892 10.4905 35.3112 14.7725L30.7476 14.7203C30.3107 13.2894 29.7118 11.8944 28.9645 10.6202C27.936 8.84084 26.6598 7.21889 25.1759 5.83496ZM35.171 27.0263C33.2516 31.2631 29.4533 34.4956 24.8339 35.7296C26.3491 34.38 27.6621 32.7877 28.7307 31.0535C29.5048 29.7755 30.1379 28.397 30.6074 26.9765L35.171 27.0287L35.171 27.0263ZM36.0458 16.9491C36.3809 18.2186 36.5514 19.5474 36.5357 20.9142C36.5201 22.281 36.3191 23.6244 35.955 24.8859L31.2082 24.8316C31.4688 23.5477 31.6286 22.225 31.6442 20.8582C31.6599 19.4915 31.5304 18.1655 31.299 16.8948L36.0458 16.9491Z" fill="#3859AC"/>
<path fill-rule="evenodd" clip-rule="evenodd" d="M16.2896 35.632C11.691 34.2926 7.96053 30.9763 6.13496 26.6943L10.7072 26.7466C11.145 28.1775 11.745 29.5725 12.4936 30.8655C13.5242 32.6261 14.8029 34.248 16.2896 35.6296L16.2896 35.632ZM6.27755 14.4405C8.20056 10.2037 12.0059 6.97125 16.634 5.73737C15.116 7.08696 13.8006 8.67926 12.7297 10.4346C11.9544 11.6914 11.3202 13.0699 10.8498 14.4928L6.27755 14.4405ZM5.40113 24.5365C5.06538 23.267 4.91653 21.9196 4.93217 20.5528C4.9478 19.186 5.12719 17.8635 5.49192 16.5998L10.2477 16.6542C9.98687 17.9168 9.82656 19.2607 9.81114 20.6086C9.79572 21.9565 9.92528 23.3014 10.1569 24.5909L5.40113 24.5365Z" fill="#3859AC"/>
<path fill-rule="evenodd" clip-rule="evenodd" d="M13.066 26.7747C13.4317 27.8397 13.8769 28.8865 14.4234 29.853C15.8835 32.5229 17.9663 34.793 20.4738 36.4356C23.0183 34.8507 25.1502 32.6313 26.6523 29.9928C27.2207 29.0391 27.6898 28.0052 28.0798 26.9464L13.066 26.7747ZM12.5861 16.52C12.2938 17.8026 12.1175 19.1488 12.1016 20.5375C12.0857 21.9262 12.2289 23.2737 12.4938 24.5842L28.6995 24.7696C28.992 23.4654 29.1684 22.1217 29.1843 20.7329C29.2001 19.3442 29.0569 17.9968 28.7918 16.7054L12.5861 16.52ZM20.6852 17.7549C19.7499 17.7442 19.0066 18.4901 18.9958 19.431C18.989 20.0224 19.2815 20.5574 19.7141 20.8689L19.0473 23.4954L22.1681 23.5311L21.5614 20.89C22.0034 20.5885 22.3057 20.0604 22.3125 19.469C22.3232 18.5304 21.5972 17.7654 20.6805 17.7549L20.6852 17.7549ZM26.8625 11.4151C25.4211 8.74534 23.338 6.49448 20.833 4.83267C18.2883 6.43672 16.1567 8.63697 14.6336 11.2752C14.0651 12.229 13.5961 13.2629 13.2061 14.3217L28.2199 14.4934C27.8542 13.4284 27.4089 12.3816 26.8625 11.4151Z" fill="#589CD5"/>
<path fill-rule="evenodd" clip-rule="evenodd" d="M23.7342 1.12286C27.9757 1.78142 31.8968 3.77555 34.93 6.87952C37.9633 9.98111 39.8708 13.9444 40.4113 18.178C40.1688 18.1132 39.8832 18.0694 39.5995 18.0662C39.1728 18.0613 38.7641 18.1377 38.3975 18.2955C37.8922 14.5318 36.1843 11.0379 33.4904 8.28569C30.7989 5.53354 27.3214 3.74466 23.5682 3.13458C23.7559 2.77213 23.8416 2.36562 23.8465 1.93912C23.8497 1.65559 23.8122 1.39065 23.7342 1.12524L23.7342 1.12286ZM40.3477 23.7415C39.7102 27.9806 37.7128 31.8778 34.6094 34.9116C31.5059 37.943 27.5403 39.8493 23.2848 40.4106C23.3689 40.1471 23.4125 39.8831 23.4157 39.5995C23.4206 39.173 23.3442 38.7647 23.1648 38.398C26.9308 37.893 30.4483 36.1865 33.2021 33.4943C35.9561 30.783 37.7458 27.3291 38.3371 23.5779C38.7 23.7441 39.1065 23.8512 39.5333 23.8561C39.817 23.8593 40.1035 23.8221 40.3476 23.7439L40.3477 23.7415ZM17.7346 40.3447C13.4931 39.6862 9.57211 37.6921 6.53886 34.5881C3.50559 31.4865 1.59787 27.5423 1.05756 23.2897C1.32127 23.3737 1.58544 23.4172 1.86915 23.4205C2.29591 23.4254 2.70476 23.3276 3.07138 23.1697C3.57675 26.9334 5.28456 30.4274 7.97823 33.201C10.6698 35.9531 14.1472 37.742 17.9007 38.333C17.7344 38.6957 17.6273 39.102 17.6224 39.5285C17.6191 39.812 17.6566 40.077 17.7347 40.3424L17.7346 40.3447ZM1.12359 17.7262C1.76078 13.5084 3.75845 9.58984 6.86191 6.55607C9.96533 3.52468 13.931 1.61838 18.1864 1.05702C18.1024 1.32056 18.0588 1.58458 18.0556 1.86811C18.0507 2.29461 18.1485 2.70322 18.3065 3.06962C14.5402 3.59607 11.0228 5.30256 8.26898 7.99241C5.5152 10.6823 3.72552 14.1362 3.13419 17.8874C2.77128 17.7212 2.36452 17.6355 1.93777 17.6306C1.65406 17.6274 1.38896 17.6649 1.12361 17.7238L1.12359 17.7262Z" fill="#E33A65"/>
<path fill-rule="evenodd" clip-rule="evenodd" d="M0.234481 20.4996C0.245246 19.5585 1.0015 18.7993 1.96286 18.8103C2.92422 18.8213 3.66291 19.5976 3.65214 20.5387C3.64138 21.4798 2.86486 22.2387 1.92376 22.228C0.982669 22.2172 0.223716 21.4407 0.234481 20.4996Z" fill="#3859AC"/>
<path fill-rule="evenodd" clip-rule="evenodd" d="M20.5089 41.2342C19.5548 41.2233 18.7999 40.4468 18.8107 39.5057C18.8214 38.5646 19.5939 37.8056 20.548 37.8165C21.5021 37.8274 22.2391 38.6037 22.2283 39.5448C22.2175 40.4859 21.4451 41.2449 20.5089 41.2342Z" fill="#3859AC"/>
<path fill-rule="evenodd" clip-rule="evenodd" d="M41.2347 20.9689C41.2239 21.91 40.4514 22.669 39.4973 22.6581C38.5432 22.6471 37.8062 21.8709 37.817 20.9298C37.8278 19.9887 38.6003 19.2297 39.5364 19.2404C40.4726 19.2511 41.2454 20.0278 41.2347 20.9689Z" fill="#3859AC"/>
<path fill-rule="evenodd" clip-rule="evenodd" d="M20.9782 0.234494C21.9143 0.245202 22.6693 1.02167 22.6585 1.96277C22.6477 2.90386 21.8752 3.66286 20.9391 3.65215C20.0029 3.64144 19.2298 2.88503 19.2408 1.92367C19.2518 0.962316 20.0241 0.22358 20.9782 0.234494Z" fill="#3859AC"/>
</svg>